<svg height="942" width="720" xmlns="http://www.w3.org/2000/svg">
<rect height="942" fill="#555" width="720"></rect>
<text fill="#7f7" font-family="Courier New" font-size="12" xml:space="preserve">
<tspan x="10" y="26">6 megabytes installed</tspan>
<tspan x="10" y="42"></tspan>
<tspan x="10" y="58">node_modules</tspan>
<tspan x="10" y="74">└─┬ dploy@1.2.0 </tspan>
<tspan x="10" y="90">  ├── colors@0.6.2 </tspan>
<tspan x="10" y="106">  ├─┬ ftp@0.3.10 </tspan>
<tspan x="10" y="122">  │ ├─┬ readable-stream@1.1.14 </tspan>
<tspan x="10" y="138">  │ │ ├── core-util-is@1.0.2 </tspan>
<tspan x="10" y="154">  │ │ ├── inherits@2.0.3 </tspan>
<tspan x="10" y="170">  │ │ ├── isarray@0.0.1 </tspan>
<tspan x="10" y="186">  │ │ └── string_decoder@0.10.31 </tspan>
<tspan x="10" y="202">  │ └── xregexp@2.0.0 </tspan>
<tspan x="10" y="218">  ├─┬ glob-expand@0.0.2 </tspan>
<tspan x="10" y="234">  │ ├─┬ glob@3.1.21 </tspan>
<tspan x="10" y="250">  │ │ ├── graceful-fs@1.2.3 </tspan>
<tspan x="10" y="266">  │ │ └── inherits@1.0.2 </tspan>
<tspan x="10" y="282">  │ └── lodash@1.2.1 </tspan>
<tspan x="10" y="298">  ├─┬ minimatch@0.2.14 </tspan>
<tspan x="10" y="314">  │ ├── lru-cache@2.7.3 </tspan>
<tspan x="10" y="330">  │ └── sigmund@1.0.1 </tspan>
<tspan x="10" y="346">  ├─┬ prompt@0.2.14 </tspan>
<tspan x="10" y="362">  │ ├── pkginfo@0.4.0 </tspan>
<tspan x="10" y="378">  │ ├─┬ read@1.0.7 </tspan>
<tspan x="10" y="394">  │ │ └── mute-stream@0.0.7 </tspan>
<tspan x="10" y="410">  │ ├── revalidator@0.1.8 </tspan>
<tspan x="10" y="426">  │ ├─┬ utile@0.2.1 </tspan>
<tspan x="10" y="442">  │ │ ├── async@0.2.10 </tspan>
<tspan x="10" y="458">  │ │ ├── deep-equal@1.0.1 </tspan>
<tspan x="10" y="474">  │ │ ├── i@0.3.5 </tspan>
<tspan x="10" y="490">  │ │ ├─┬ mkdirp@0.5.1 </tspan>
<tspan x="10" y="506">  │ │ │ └── minimist@0.0.8 </tspan>
<tspan x="10" y="522">  │ │ ├── ncp@0.4.2 </tspan>
<tspan x="10" y="538">  │ │ └─┬ rimraf@2.6.1 </tspan>
<tspan x="10" y="554">  │ │   └─┬ glob@7.1.1 </tspan>
<tspan x="10" y="570">  │ │     ├── fs.realpath@1.0.0 </tspan>
<tspan x="10" y="586">  │ │     ├─┬ inflight@1.0.6 </tspan>
<tspan x="10" y="602">  │ │     │ └── wrappy@1.0.2 </tspan>
<tspan x="10" y="618">  │ │     ├─┬ minimatch@3.0.3 </tspan>
<tspan x="10" y="634">  │ │     │ └─┬ brace-expansion@1.1.7 </tspan>
<tspan x="10" y="650">  │ │     │   ├── balanced-match@0.4.2 </tspan>
<tspan x="10" y="666">  │ │     │   └── concat-map@0.0.1 </tspan>
<tspan x="10" y="682">  │ │     ├── once@1.4.0 </tspan>
<tspan x="10" y="698">  │ │     └── path-is-absolute@1.0.1 </tspan>
<tspan x="10" y="714">  │ └─┬ winston@0.8.3 </tspan>
<tspan x="10" y="730">  │   ├── cycle@1.0.3 </tspan>
<tspan x="10" y="746">  │   ├── eyes@0.1.8 </tspan>
<tspan x="10" y="762">  │   ├── isstream@0.1.2 </tspan>
<tspan x="10" y="778">  │   ├── pkginfo@0.3.1 </tspan>
<tspan x="10" y="794">  │   └── stack-trace@0.0.9 </tspan>
<tspan x="10" y="810">  ├── signals@1.0.0 </tspan>
<tspan x="10" y="826">  ├─┬ ssh2@0.2.25 </tspan>
<tspan x="10" y="842">  │ ├── asn1@0.1.11 </tspan>
<tspan x="10" y="858">  │ └── streamsearch@0.1.2 </tspan>
<tspan x="10" y="874">  └─┬ yamljs@0.1.6 </tspan>
<tspan x="10" y="890">    └─┬ argparse@0.1.16 </tspan>
<tspan x="10" y="906">      ├── underscore@1.7.0 </tspan>
<tspan x="10" y="922">      └── underscore.string@2.4.0</tspan>
</text>
</svg>
